<mxfile host="app.diagrams.net" modified="2023-10-05T03:46:56.738Z" agent="Mozilla/5.0 (Windows NT 10.0; Win64; x64; rv:109.0) Gecko/20100101 Firefox/118.0" version="22.0.2" etag="FDiCJ5I4YOzaYuFik1Q0" type="device">
  <diagram id="1cee9afd-dcdd-cf27-cb82-50d77dad4855" name="Page-1">
    <mxGraphModel dx="2146" dy="757" grid="1" gridSize="10" guides="1" tooltips="1" connect="1" arrows="1" fold="1" page="1" pageScale="1" pageWidth="850" pageHeight="1100" math="0" shadow="0">
      <root>
        <mxCell id="0" />
        <mxCell id="1" parent="0" />
        <mxCell id="c1cb8d76720eaeb-7" value="Login and Logout from system" style="ellipse;whiteSpace=wrap;html=1;fillColor=#FF8000;strokeColor=#000066;fontColor=#000099;" parent="1" vertex="1">
          <mxGeometry x="348" y="104" width="155" height="80" as="geometry" />
        </mxCell>
        <mxCell id="qJAB0-lJGdeFfI5xXRyz-11" style="edgeStyle=entityRelationEdgeStyle;rounded=0;orthogonalLoop=1;jettySize=auto;html=1;entryX=0;entryY=0.5;entryDx=0;entryDy=0;" edge="1" parent="1" source="c1cb8d76720eaeb-15" target="c1cb8d76720eaeb-7">
          <mxGeometry relative="1" as="geometry" />
        </mxCell>
        <mxCell id="qJAB0-lJGdeFfI5xXRyz-14" style="edgeStyle=entityRelationEdgeStyle;rounded=0;orthogonalLoop=1;jettySize=auto;html=1;entryX=0;entryY=0.5;entryDx=0;entryDy=0;" edge="1" parent="1" source="c1cb8d76720eaeb-15" target="qJAB0-lJGdeFfI5xXRyz-4">
          <mxGeometry relative="1" as="geometry" />
        </mxCell>
        <mxCell id="qJAB0-lJGdeFfI5xXRyz-16" style="edgeStyle=entityRelationEdgeStyle;rounded=0;orthogonalLoop=1;jettySize=auto;html=1;entryX=0;entryY=0.5;entryDx=0;entryDy=0;" edge="1" parent="1" source="c1cb8d76720eaeb-15" target="qJAB0-lJGdeFfI5xXRyz-5">
          <mxGeometry relative="1" as="geometry" />
        </mxCell>
        <mxCell id="qJAB0-lJGdeFfI5xXRyz-18" style="edgeStyle=entityRelationEdgeStyle;rounded=0;orthogonalLoop=1;jettySize=auto;html=1;entryX=0;entryY=0.5;entryDx=0;entryDy=0;" edge="1" parent="1" source="c1cb8d76720eaeb-15" target="qJAB0-lJGdeFfI5xXRyz-8">
          <mxGeometry relative="1" as="geometry" />
        </mxCell>
        <mxCell id="qJAB0-lJGdeFfI5xXRyz-20" style="edgeStyle=entityRelationEdgeStyle;rounded=0;orthogonalLoop=1;jettySize=auto;html=1;" edge="1" parent="1" source="c1cb8d76720eaeb-15" target="qJAB0-lJGdeFfI5xXRyz-9">
          <mxGeometry relative="1" as="geometry" />
        </mxCell>
        <mxCell id="c1cb8d76720eaeb-15" value="User" style="shape=umlActor;verticalLabelPosition=bottom;labelBackgroundColor=#ffffff;verticalAlign=top;html=1;strokeWidth=4;fillColor=#FF8000;strokeColor=#000066;fontColor=#000099;" parent="1" vertex="1">
          <mxGeometry x="150" y="530" width="30" height="60" as="geometry" />
        </mxCell>
        <mxCell id="qJAB0-lJGdeFfI5xXRyz-12" style="edgeStyle=entityRelationEdgeStyle;rounded=0;orthogonalLoop=1;jettySize=auto;html=1;entryX=1;entryY=0.5;entryDx=0;entryDy=0;" edge="1" parent="1" source="c1cb8d76720eaeb-20" target="c1cb8d76720eaeb-7">
          <mxGeometry relative="1" as="geometry" />
        </mxCell>
        <mxCell id="qJAB0-lJGdeFfI5xXRyz-15" style="edgeStyle=entityRelationEdgeStyle;rounded=0;orthogonalLoop=1;jettySize=auto;html=1;entryX=1;entryY=0.5;entryDx=0;entryDy=0;" edge="1" parent="1" source="c1cb8d76720eaeb-20" target="qJAB0-lJGdeFfI5xXRyz-4">
          <mxGeometry relative="1" as="geometry" />
        </mxCell>
        <mxCell id="qJAB0-lJGdeFfI5xXRyz-17" style="edgeStyle=entityRelationEdgeStyle;rounded=0;orthogonalLoop=1;jettySize=auto;html=1;entryX=1;entryY=0.5;entryDx=0;entryDy=0;" edge="1" parent="1" source="c1cb8d76720eaeb-20" target="qJAB0-lJGdeFfI5xXRyz-5">
          <mxGeometry relative="1" as="geometry" />
        </mxCell>
        <mxCell id="qJAB0-lJGdeFfI5xXRyz-19" style="edgeStyle=entityRelationEdgeStyle;rounded=0;orthogonalLoop=1;jettySize=auto;html=1;entryX=1;entryY=0.5;entryDx=0;entryDy=0;" edge="1" parent="1" source="c1cb8d76720eaeb-20" target="qJAB0-lJGdeFfI5xXRyz-8">
          <mxGeometry relative="1" as="geometry" />
        </mxCell>
        <mxCell id="qJAB0-lJGdeFfI5xXRyz-21" style="edgeStyle=entityRelationEdgeStyle;rounded=0;orthogonalLoop=1;jettySize=auto;html=1;entryX=1;entryY=0.5;entryDx=0;entryDy=0;" edge="1" parent="1" source="c1cb8d76720eaeb-20" target="qJAB0-lJGdeFfI5xXRyz-9">
          <mxGeometry relative="1" as="geometry" />
        </mxCell>
        <mxCell id="qJAB0-lJGdeFfI5xXRyz-22" style="edgeStyle=entityRelationEdgeStyle;rounded=0;orthogonalLoop=1;jettySize=auto;html=1;entryX=1;entryY=0.5;entryDx=0;entryDy=0;" edge="1" parent="1" source="c1cb8d76720eaeb-20" target="qJAB0-lJGdeFfI5xXRyz-6">
          <mxGeometry relative="1" as="geometry" />
        </mxCell>
        <mxCell id="qJAB0-lJGdeFfI5xXRyz-23" style="edgeStyle=entityRelationEdgeStyle;rounded=0;orthogonalLoop=1;jettySize=auto;html=1;entryX=1;entryY=0.5;entryDx=0;entryDy=0;" edge="1" parent="1" source="c1cb8d76720eaeb-20" target="qJAB0-lJGdeFfI5xXRyz-7">
          <mxGeometry relative="1" as="geometry" />
        </mxCell>
        <mxCell id="c1cb8d76720eaeb-20" value="Admin" style="shape=umlActor;verticalLabelPosition=bottom;labelBackgroundColor=#ffffff;verticalAlign=top;html=1;strokeWidth=4;fillColor=#FF8000;strokeColor=#000066;fontColor=#000099;" parent="1" vertex="1">
          <mxGeometry x="670" y="394" width="30" height="60" as="geometry" />
        </mxCell>
        <mxCell id="c1cb8d76720eaeb-22" value="Survey Platform UI Ux - use cases" style="shape=umlFrame;whiteSpace=wrap;html=1;strokeWidth=1;fillColor=none;width=200;height=30;fontColor=#000099;strokeColor=#000066;" parent="1" vertex="1">
          <mxGeometry x="245" y="60" width="360" height="710" as="geometry" />
        </mxCell>
        <mxCell id="qJAB0-lJGdeFfI5xXRyz-10" style="edgeStyle=entityRelationEdgeStyle;rounded=0;orthogonalLoop=1;jettySize=auto;html=1;entryX=0;entryY=0.5;entryDx=0;entryDy=0;" edge="1" parent="1" source="qJAB0-lJGdeFfI5xXRyz-1" target="c1cb8d76720eaeb-7">
          <mxGeometry relative="1" as="geometry" />
        </mxCell>
        <mxCell id="qJAB0-lJGdeFfI5xXRyz-13" style="edgeStyle=entityRelationEdgeStyle;rounded=0;orthogonalLoop=1;jettySize=auto;html=1;entryX=0;entryY=0.5;entryDx=0;entryDy=0;" edge="1" parent="1" source="qJAB0-lJGdeFfI5xXRyz-1" target="qJAB0-lJGdeFfI5xXRyz-5">
          <mxGeometry relative="1" as="geometry" />
        </mxCell>
        <mxCell id="qJAB0-lJGdeFfI5xXRyz-1" value="&lt;div&gt;Guest&lt;/div&gt;" style="shape=umlActor;verticalLabelPosition=bottom;labelBackgroundColor=#ffffff;verticalAlign=top;html=1;strokeWidth=4;fillColor=#FF8000;strokeColor=#000066;fontColor=#000099;" vertex="1" parent="1">
          <mxGeometry x="150" y="250" width="30" height="60" as="geometry" />
        </mxCell>
        <mxCell id="qJAB0-lJGdeFfI5xXRyz-4" value="&lt;div&gt;Create, Edit, Delete&amp;nbsp;&lt;/div&gt;&lt;div&gt;Surveys&lt;/div&gt;" style="ellipse;whiteSpace=wrap;html=1;fillColor=#FF8000;strokeColor=#000066;fontColor=#000099;" vertex="1" parent="1">
          <mxGeometry x="348" y="199" width="155" height="80" as="geometry" />
        </mxCell>
        <mxCell id="qJAB0-lJGdeFfI5xXRyz-5" value="Fill Surveys" style="ellipse;whiteSpace=wrap;html=1;fillColor=#FF8000;strokeColor=#000066;fontColor=#000099;" vertex="1" parent="1">
          <mxGeometry x="348" y="289" width="155" height="80" as="geometry" />
        </mxCell>
        <mxCell id="qJAB0-lJGdeFfI5xXRyz-6" value="&lt;div&gt;Manage All Surveys&lt;/div&gt;&lt;div&gt;(Hide, Delete)&lt;br&gt;&lt;/div&gt;" style="ellipse;whiteSpace=wrap;html=1;fillColor=#FF8000;strokeColor=#000066;fontColor=#000099;" vertex="1" parent="1">
          <mxGeometry x="348" y="567" width="155" height="80" as="geometry" />
        </mxCell>
        <mxCell id="qJAB0-lJGdeFfI5xXRyz-7" value="&lt;div&gt;Manage All Guest &amp;amp; User&lt;br&gt;&lt;/div&gt;&lt;div&gt;(Edit, Delete)&lt;br&gt;&lt;/div&gt;" style="ellipse;whiteSpace=wrap;html=1;fillColor=#FF8000;strokeColor=#000066;fontColor=#000099;" vertex="1" parent="1">
          <mxGeometry x="348" y="657" width="155" height="80" as="geometry" />
        </mxCell>
        <mxCell id="qJAB0-lJGdeFfI5xXRyz-8" value="Check Responses" style="ellipse;whiteSpace=wrap;html=1;fillColor=#FF8000;strokeColor=#000066;fontColor=#000099;" vertex="1" parent="1">
          <mxGeometry x="348" y="384" width="155" height="80" as="geometry" />
        </mxCell>
        <mxCell id="qJAB0-lJGdeFfI5xXRyz-9" value="Check Result" style="ellipse;whiteSpace=wrap;html=1;fillColor=#FF8000;strokeColor=#000066;fontColor=#000099;" vertex="1" parent="1">
          <mxGeometry x="348" y="474" width="155" height="80" as="geometry" />
        </mxCell>
      </root>
    </mxGraphModel>
  </diagram>
</mxfile>
